<svg xmlns="http://www.w3.org/2000/svg" width="1400" height="1000" viewBox="0 0 1400 1000" preserveAspectRatio="xMidYMid slice" role="img">
<defs>
  <filter id="grain" x="0" y="0" width="100%" height="100%">
    <feTurbulence type="fractalNoise" baseFrequency="0.9" numOctaves="2" stitchTiles="stitch" result="n"/>
    <feColorMatrix in="n" type="saturate" values="0"/>
  </filter></defs>

  <linearGradient id="floor" x1="0" y1="0" x2="0" y2="1"><stop offset="0" stop-color="#1D1C19" stop-opacity="1"/><stop offset="1" stop-color="#141311" stop-opacity="1"/></linearGradient>
  <rect width="1400" height="1000" fill="#232220"/>
  <rect y="580" width="1400" height="420" fill="url(#floor)"/>
  <rect x="112" y="620" width="44.800000000000004" height="300" fill="#000" opacity="0.28" transform="skewX(-18)"/><rect x="214.66666666666669" y="620" width="44.800000000000004" height="300" fill="#000" opacity="0.28" transform="skewX(-18)"/><rect x="317.33333333333337" y="620" width="44.800000000000004" height="300" fill="#000" opacity="0.28" transform="skewX(-18)"/><rect x="420" y="620" width="44.800000000000004" height="300" fill="#000" opacity="0.28" transform="skewX(-18)"/><rect x="522.6666666666667" y="620" width="44.800000000000004" height="300" fill="#000" opacity="0.28" transform="skewX(-18)"/><rect x="625.3333333333334" y="620" width="44.800000000000004" height="300" fill="#000" opacity="0.28" transform="skewX(-18)"/><rect x="728" y="620" width="44.800000000000004" height="300" fill="#000" opacity="0.28" transform="skewX(-18)"/><rect x="830.6666666666666" y="620" width="44.800000000000004" height="300" fill="#000" opacity="0.28" transform="skewX(-18)"/><rect x="933.3333333333334" y="620" width="44.800000000000004" height="300" fill="#000" opacity="0.28" transform="skewX(-18)"/><rect x="1036" y="620" width="44.800000000000004" height="300" fill="#000" opacity="0.28" transform="skewX(-18)"/><rect x="1138.6666666666667" y="620" width="44.800000000000004" height="300" fill="#000" opacity="0.28" transform="skewX(-18)"/><rect x="1241.3333333333333" y="620" width="44.800000000000004" height="300" fill="#000" opacity="0.28" transform="skewX(-18)"/>
  
    <polygon points="98.00000000000001,140 1302,122 1302,142 98.00000000000001,160" fill="#33302A" opacity="0.6"/>
    <rect x="98.00000000000001" y="140" width="1204" height="52" fill="#2A2823"/>
    <rect x="98.00000000000001" y="140" width="1204" height="14.560000000000002" fill="#8F663F" opacity="0.85"/>
    <polygon points="89.25,177.50000000000003 1310.75,159.50000000000003 1310.75,179.50000000000003 89.25,197.50000000000003" fill="#33302A" opacity="0.6375"/>
    <rect x="89.25" y="177.50000000000003" width="1221.5" height="54.5" fill="#2A2823"/>
    <rect x="89.25" y="177.50000000000003" width="1221.5" height="15.260000000000002" fill="#8F663F" opacity="0.85"/>
    <polygon points="80.50000000000001,215.00000000000003 1319.5,197.00000000000003 1319.5,217.00000000000003 80.50000000000001,235.00000000000003" fill="#33302A" opacity="0.6749999999999999"/>
    <rect x="80.50000000000001" y="215.00000000000003" width="1239" height="56.99999999999997" fill="#2A2823"/>
    <rect x="80.50000000000001" y="215.00000000000003" width="1239" height="15.959999999999994" fill="#8F663F" opacity="0.85"/>
    <polygon points="71.75,252.5 1328.25,234.5 1328.25,254.5 71.75,272.5" fill="#33302A" opacity="0.7124999999999999"/>
    <rect x="71.75" y="252.5" width="1256.5" height="59.5" fill="#2A2823"/>
    <rect x="71.75" y="252.5" width="1256.5" height="16.66" fill="#8F663F" opacity="0.85"/>
    <polygon points="63.00000000000001,290.00000000000006 1337,272.00000000000006 1337,292.00000000000006 63.00000000000001,310.00000000000006" fill="#33302A" opacity="0.75"/>
    <rect x="63.00000000000001" y="290.00000000000006" width="1274" height="62" fill="#2A2823"/>
    <rect x="63.00000000000001" y="290.00000000000006" width="1274" height="17.360000000000003" fill="#8F663F" opacity="0.85"/>
    <polygon points="54.25000000000001,327.5 1345.75,309.5 1345.75,329.5 54.25000000000001,347.5" fill="#33302A" opacity="0.7875"/>
    <rect x="54.25000000000001" y="327.5" width="1291.5" height="64.5" fill="#2A2823"/>
    <rect x="54.25000000000001" y="327.5" width="1291.5" height="18.060000000000002" fill="#8F663F" opacity="0.85"/>
    <polygon points="45.5,365 1354.5,347 1354.5,367 45.5,385" fill="#33302A" opacity="0.825"/>
    <rect x="45.5" y="365" width="1309" height="67" fill="#2A2823"/>
    <rect x="45.5" y="365" width="1309" height="18.76" fill="#8F663F" opacity="0.85"/>
    <polygon points="36.75,402.5 1363.25,384.5 1363.25,404.5 36.75,422.5" fill="#33302A" opacity="0.8625"/>
    <rect x="36.75" y="402.5" width="1326.5" height="69.5" fill="#2A2823"/>
    <rect x="36.75" y="402.5" width="1326.5" height="19.46" fill="#8F663F" opacity="0.85"/>
    <polygon points="28.000000000000007,440 1372,422 1372,442 28.000000000000007,460" fill="#33302A" opacity="0.8999999999999999"/>
    <rect x="28.000000000000007" y="440" width="1344" height="72" fill="#2A2823"/>
    <rect x="28.000000000000007" y="440" width="1344" height="20.160000000000004" fill="#8F663F" opacity="0.85"/>
  <line x1="98.00000000000001" y1="80" x2="98.00000000000001" y2="660" stroke="#141311" stroke-width="16.8" />
  <line x1="1302" y1="80" x2="1302" y2="660" stroke="#141311" stroke-width="16.8" />
<rect width="1400" height="1000" filter="url(#grain)" opacity="0.045" style="mix-blend-mode:overlay"/>
</svg>